<svg width="45" height="44" viewBox="0 0 45 44" fill="none" xmlns="http://www.w3.org/2000/svg"><style>svg .delivery-svg-elem-1{stroke-dashoffset:30.821739196777344px;stroke-dasharray:30.821739196777344px;-webkit-transition:stroke-dashoffset 1s cubic-bezier(0.47,0,0.745,0.715) 0s;transition:stroke-dashoffset 1s cubic-bezier(0.47,0,0.745,0.715) 0s}svg.active .delivery-svg-elem-1{stroke-dashoffset:61.64347839355469px}svg .delivery-svg-elem-2{stroke-dashoffset:30.821754455566406px;stroke-dasharray:30.821754455566406px;-webkit-transition:stroke-dashoffset 1s cubic-bezier(0.47,0,0.745,0.715) 0.12s;transition:stroke-dashoffset 1s cubic-bezier(0.47,0,0.745,0.715) 0.12s}svg.active .delivery-svg-elem-2{stroke-dashoffset:61.64350891113281px}svg .delivery-svg-elem-3{stroke-dashoffset:21.834373474121094px;stroke-dasharray:21.834373474121094px;-webkit-transition:stroke-dashoffset 1s cubic-bezier(0.47,0,0.745,0.715) 0.24s;transition:stroke-dashoffset 1s cubic-bezier(0.47,0,0.745,0.715) 0.24s}svg.active .delivery-svg-elem-3{stroke-dashoffset:43.66874694824219px}svg .delivery-svg-elem-4{stroke-dashoffset:15.257278442382812px;stroke-dasharray:15.257278442382812px;-webkit-transition:stroke-dashoffset 1s cubic-bezier(0.47,0,0.745,0.715) 0.36s;transition:stroke-dashoffset 1s cubic-bezier(0.47,0,0.745,0.715) 0.36s}svg.active .delivery-svg-elem-4{stroke-dashoffset:30.514556884765625px}svg .delivery-svg-elem-5{stroke-dashoffset:42.316593170166016px;stroke-dasharray:42.316593170166016px;-webkit-transition:stroke-dashoffset 1s cubic-bezier(0.47,0,0.745,0.715) 0.48s;transition:stroke-dashoffset 1s cubic-bezier(0.47,0,0.745,0.715) 0.48s}svg.active .delivery-svg-elem-5{stroke-dashoffset:84.63318634033203px}svg .delivery-svg-elem-6{stroke-dashoffset:69.91607666015625px;stroke-dasharray:69.91607666015625px;-webkit-transition:stroke-dashoffset 1s cubic-bezier(0.47,0,0.745,0.715) 0.6s;transition:stroke-dashoffset 1s cubic-bezier(0.47,0,0.745,0.715) 0.6s}svg.active .delivery-svg-elem-6{stroke-dashoffset:139.8321533203125px}</style><path d="M29.8071 12.5657L29.8889 13.652L30.6593 12.8817L36.0507 7.49027L36.213 7.328L36.1957 7.09917L35.8842 2.96245L35.8024 1.87612L35.0321 2.64645L29.6406 8.0379L29.4783 8.20016L29.4956 8.429L29.8071 12.5657Z" stroke="white" stroke-miterlimit="10" class="delivery-svg-elem-1"></path><path d="M30.9325 13.155L30.162 13.9253L31.2485 14.0071L35.3852 14.3187L35.6141 14.3359L35.7763 14.1736L41.1678 8.78218L41.9383 8.01162L40.8517 7.93003L36.7149 7.61945L36.4862 7.60227L36.324 7.76446L30.9325 13.155Z" stroke="white" stroke-miterlimit="10" class="delivery-svg-elem-2"></path><path d="M36.3698 7.44446L22.3448 21.4695" stroke="white" stroke-miterlimit="10" class="delivery-svg-elem-3"></path><path d="M19.6314 18.4008C18.84 19.1921 18.3954 20.2655 18.3954 21.3847C18.3954 21.9388 18.5046 22.4876 18.7167 22.9996C18.9287 23.5115 19.2396 23.9767 19.6314 24.3686C20.0233 24.7605 20.4885 25.0713 21.0004 25.2834C21.5124 25.4954 22.0612 25.6046 22.6153 25.6046C23.7345 25.6046 24.8079 25.16 25.5993 24.3686" stroke="#E93CAC" stroke-miterlimit="10" class="delivery-svg-elem-4"></path><path d="M22.6153 8.55151C19.2118 8.55151 15.9476 9.90357 13.5409 12.3103C11.1342 14.7169 9.78218 17.9811 9.78218 21.3847C9.78218 24.7882 11.1342 28.0524 13.5409 30.4591C15.9476 32.8658 19.2118 34.2178 22.6153 34.2178" stroke="white" stroke-miterlimit="10" class="delivery-svg-elem-5"></path><path d="M44.2307 21.3846C44.2307 33.3222 34.5529 43 22.6153 43C10.6777 43 1 33.3222 1 21.3846" stroke="#E93CAC" stroke-miterlimit="10" class="delivery-svg-elem-6"></path></svg>