<svg width="71" height="71" viewBox="0 0 71 71" fill="none" xmlns="http://www.w3.org/2000/svg"><path d="M8.82692 48.7838C4.09233 43.4657 1.53357 36.5508 1.6748 29.4191C1.81946 22.1138 4.78592 15.1481 9.95255 9.98144C15.1192 4.81481 22.085 1.84835 29.3902 1.70369C36.5219 1.56246 43.4368 4.12121 48.7549 8.8558L40.7664 16.8443C37.6158 13.9434 33.4776 12.3384 29.1828 12.3645C24.723 12.3916 20.4536 14.1752 17.3 17.3288C14.1463 20.4825 12.3627 24.7519 12.3356 29.2117C12.3095 33.5065 13.9146 37.6446 16.8154 40.7953L8.82692 48.7838Z" fill="#D5D5D5" stroke="#D5D5D5"/><path d="M69.7472 29.1938V29.1943C69.7533 37.2326 67.3737 45.092 62.9099 51.777C58.446 58.4619 52.0988 63.6719 44.6719 66.747C37.245 69.8221 29.0726 70.624 21.1896 69.0512C13.47 67.511 6.36806 63.7613 0.74465 58.2632L8.74258 50.2652C11.3869 52.8219 14.4901 54.8589 17.8907 56.2683C21.4454 57.7416 25.2555 58.5004 29.1034 58.5012C32.9513 58.502 36.7617 57.7449 40.3171 56.2731C43.8724 54.8014 47.103 52.6437 49.8245 49.9234C52.546 47.2031 54.705 43.9734 56.1783 40.4187C57.6516 36.864 58.4103 33.0539 58.4111 29.206C58.4119 25.3581 57.6548 21.5477 56.1831 17.9924C54.7751 14.5911 52.7393 11.4869 50.1837 8.8415L58.1821 0.843143C61.7951 4.53285 64.6705 8.88059 66.6516 13.6529C68.6966 18.5789 69.7486 23.8602 69.7472 29.1938Z" fill="#D5D5D5" stroke="#D5D5D5"/><path d="M40.737 18.2716C42.0608 19.6724 43.1199 21.3033 43.8611 23.0854C44.6663 25.021 45.0806 27.0966 45.0804 29.1929L40.737 18.2716ZM40.737 18.2716L29.4898 29.547L29.4889 29.5479L18.2148 40.7938C20.3862 42.8317 23.0876 44.2234 26.0147 44.8064C29.1058 45.4219 32.3099 45.108 35.2226 43.9041C38.1353 42.7002 40.6261 40.6605 42.3806 38.0422C44.1349 35.4242 45.0743 32.3452 45.0804 29.1938L40.737 18.2716Z" fill="#D5D5D5" stroke="#D5D5D5"/></svg>