<svg width="45" height="42" viewBox="0 0 45 42" fill="none" xmlns="http://www.w3.org/2000/svg"><style>svg .tailor-made-svg-elem-1{stroke-dashoffset:72.15980529785156px;stroke-dasharray:72.15980529785156px;-webkit-transition:stroke-dashoffset 1s cubic-bezier(0.47,0,0.745,0.715) 0s;transition:stroke-dashoffset 1s cubic-bezier(0.47,0,0.745,0.715) 0s}svg.active .tailor-made-svg-elem-1{stroke-dashoffset:0}svg .tailor-made-svg-elem-2{stroke-dashoffset:39.72840118408203px;stroke-dasharray:39.72840118408203px;-webkit-transition:stroke-dashoffset 1s cubic-bezier(0.47,0,0.745,0.715) 0.12s;transition:stroke-dashoffset 1s cubic-bezier(0.47,0,0.745,0.715) 0.12s}svg.active .tailor-made-svg-elem-2{stroke-dashoffset:0}svg .tailor-made-svg-elem-3{stroke-dashoffset:15.226200103759766px;stroke-dasharray:15.226200103759766px;-webkit-transition:stroke-dashoffset 1s cubic-bezier(0.47,0,0.745,0.715) 0.24s;transition:stroke-dashoffset 1s cubic-bezier(0.47,0,0.745,0.715) 0.24s}svg.active .tailor-made-svg-elem-3{stroke-dashoffset:0}svg .tailor-made-svg-elem-4{stroke-dashoffset:13.758054733276367px;stroke-dasharray:13.758054733276367px;-webkit-transition:stroke-dashoffset 1s cubic-bezier(0.47,0,0.745,0.715) 0.36s;transition:stroke-dashoffset 1s cubic-bezier(0.47,0,0.745,0.715) 0.36s}svg.active .tailor-made-svg-elem-4{stroke-dashoffset:0}svg .tailor-made-svg-elem-5{stroke-dashoffset:13.758096694946289px;stroke-dasharray:13.758096694946289px;-webkit-transition:stroke-dashoffset 1s cubic-bezier(0.47,0,0.745,0.715) 0.48s;transition:stroke-dashoffset 1s cubic-bezier(0.47,0,0.745,0.715) 0.48s}svg.active .tailor-made-svg-elem-5{stroke-dashoffset:0}svg .tailor-made-svg-elem-6{stroke-dashoffset:13.758109092712402px;stroke-dasharray:13.758109092712402px;-webkit-transition:stroke-dashoffset 1s cubic-bezier(0.47,0,0.745,0.715) 0.6s;transition:stroke-dashoffset 1s cubic-bezier(0.47,0,0.745,0.715) 0.6s}svg.active .tailor-made-svg-elem-6{stroke-dashoffset:0}svg .tailor-made-svg-elem-7{stroke-dashoffset:13.758057594299316px;stroke-dasharray:13.758057594299316px;-webkit-transition:stroke-dashoffset 1s cubic-bezier(0.47,0,0.745,0.715) 0.72s;transition:stroke-dashoffset 1s cubic-bezier(0.47,0,0.745,0.715) 0.72s}svg.active .tailor-made-svg-elem-7{stroke-dashoffset:0}svg .tailor-made-svg-elem-8{stroke-dashoffset:13.758052825927734px;stroke-dasharray:13.758052825927734px;-webkit-transition:stroke-dashoffset 1s cubic-bezier(0.47,0,0.745,0.715) 0.84s;transition:stroke-dashoffset 1s cubic-bezier(0.47,0,0.745,0.715) 0.84s}svg.active .tailor-made-svg-elem-8{stroke-dashoffset:0}svg .tailor-made-svg-elem-9{stroke-dashoffset:19.414718627929688px;stroke-dasharray:19.414718627929688px;-webkit-transition:stroke-dashoffset 1s cubic-bezier(0.47,0,0.745,0.715) 0.96s;transition:stroke-dashoffset 1s cubic-bezier(0.47,0,0.745,0.715) 0.96s}svg.active .tailor-made-svg-elem-9{stroke-dashoffset:0}svg .tailor-made-svg-elem-10{stroke-dashoffset:18.996198654174805px;stroke-dasharray:18.996198654174805px;-webkit-transition:stroke-dashoffset 1s cubic-bezier(0.47,0,0.745,0.715) 1.08s;transition:stroke-dashoffset 1s cubic-bezier(0.47,0,0.745,0.715) 1.08s}svg.active .tailor-made-svg-elem-10{stroke-dashoffset:0}svg .tailor-made-svg-elem-11{stroke-dashoffset:17.083938598632812px;stroke-dasharray:17.083938598632812px;-webkit-transition:stroke-dashoffset 1s cubic-bezier(0.47,0,0.745,0.715) 1.2s;transition:stroke-dashoffset 1s cubic-bezier(0.47,0,0.745,0.715) 1.2s}svg.active .tailor-made-svg-elem-11{stroke-dashoffset:0}svg .tailor-made-svg-elem-12{stroke-dashoffset:31.259933471679688px;stroke-dasharray:31.259933471679688px;-webkit-transition:stroke-dashoffset 1s cubic-bezier(0.47,0,0.745,0.715) 1.3199999999999998s;transition:stroke-dashoffset 1s cubic-bezier(0.47,0,0.745,0.715) 1.3199999999999998s}svg.active .tailor-made-svg-elem-12{stroke-dashoffset:0}svg .tailor-made-svg-elem-13{stroke-dashoffset:31.386066436767578px;stroke-dasharray:31.386066436767578px;-webkit-transition:stroke-dashoffset 1s cubic-bezier(0.47,0,0.745,0.715) 1.44s;transition:stroke-dashoffset 1s cubic-bezier(0.47,0,0.745,0.715) 1.44s}svg.active .tailor-made-svg-elem-13{stroke-dashoffset:0}</style><path d="M22.8925 12.2457L22.4898 11.6966L22.0865 12.2453L12.4729 25.3244L12.3033 25.5552L12.4165 25.8182L17.2101 36.9567L17.3402 37.2591H17.6694H27.3093H27.639L27.7689 36.956L32.5417 25.8175L32.6542 25.555L32.4853 25.3248L22.8925 12.2457Z" stroke="white" class="tailor-made-svg-elem-1"></path><path d="M30.0336 38.2262V37.7262H29.5336H15.4432H14.9432V38.2262V41V41.5H15.4432H29.5336H30.0336V41V38.2262Z" stroke="white" class="tailor-made-svg-elem-2"></path><path d="M22.478 11.7197V24.9459" stroke="white" stroke-miterlimit="10" class="tailor-made-svg-elem-3"></path><path d="M23.5808 25.3317C23.2731 25.1261 22.9113 25.0164 22.5412 25.0164C22.0448 25.0164 21.5689 25.2135 21.2179 25.5645C20.867 25.9154 20.6698 26.3914 20.6698 26.8877C20.6698 27.2578 20.7796 27.6196 20.9852 27.9274C21.1908 28.2351 21.4831 28.475 21.825 28.6166C22.167 28.7582 22.5432 28.7953 22.9062 28.7231C23.2692 28.6509 23.6027 28.4727 23.8644 28.2109C24.1261 27.9492 24.3043 27.6158 24.3766 27.2528C24.4488 26.8898 24.4117 26.5135 24.2701 26.1716C24.1284 25.8296 23.8886 25.5374 23.5808 25.3317Z" stroke="white" class="tailor-made-svg-elem-4"></path><path d="M43.3851 22.2445C43.0774 22.0388 42.7156 21.9291 42.3455 21.9291C41.8492 21.9291 41.3732 22.1262 41.0222 22.4772C40.6713 22.8281 40.4741 23.3041 40.4741 23.8004C40.4741 24.1705 40.5839 24.5323 40.7895 24.8401C40.9951 25.1478 41.2874 25.3877 41.6293 25.5293C41.9713 25.671 42.3475 25.708 42.7106 25.6358C43.0736 25.5636 43.407 25.3854 43.6687 25.1237C43.9304 24.862 44.1087 24.5285 44.1809 24.1655C44.2531 23.8025 44.216 23.4262 44.0744 23.0843C43.9327 22.7423 43.6929 22.4501 43.3851 22.2445Z" stroke="#E93CAC" class="tailor-made-svg-elem-5"></path><path d="M43.3851 0.829416C43.0774 0.62379 42.7156 0.514038 42.3455 0.514038C41.8492 0.514038 41.3732 0.711197 41.0222 1.06214C40.6713 1.41309 40.4741 1.88907 40.4741 2.38538C40.4741 2.7555 40.5839 3.11731 40.7895 3.42505C40.9951 3.73279 41.2874 3.97264 41.6293 4.11428C41.9713 4.25592 42.3475 4.29298 42.7106 4.22077C43.0736 4.14857 43.407 3.97034 43.6687 3.70863C43.9304 3.44691 44.1087 3.11347 44.1809 2.75046C44.2531 2.38746 44.216 2.01119 44.0744 1.66925C43.9327 1.32731 43.6929 1.03504 43.3851 0.829416Z" stroke="#E93CAC" class="tailor-made-svg-elem-6"></path><path d="M3.41102 22.2445C3.10328 22.0388 2.74147 21.9291 2.37135 21.9291C1.87504 21.9291 1.39906 22.1262 1.04811 22.4772C0.697161 22.8281 0.5 23.3041 0.5 23.8004C0.5 24.1705 0.609753 24.5323 0.815381 24.8401C1.02101 25.1478 1.31328 25.3877 1.65522 25.5293C1.99716 25.671 2.37343 25.708 2.73644 25.6358C3.09944 25.5636 3.43289 25.3854 3.6946 25.1237C3.95631 24.862 4.13454 24.5285 4.20675 24.1655C4.27896 23.8025 4.2419 23.4262 4.10026 23.0843C3.95862 22.7423 3.71876 22.4501 3.41102 22.2445Z" stroke="#E93CAC" class="tailor-made-svg-elem-7"></path><path d="M3.41102 0.826486C3.10328 0.62086 2.74147 0.511108 2.37135 0.511108C1.87504 0.511108 1.39906 0.708267 1.04811 1.05921C0.697161 1.41016 0.5 1.88614 0.5 2.38245C0.5 2.75257 0.609753 3.11438 0.815381 3.42212C1.02101 3.72986 1.31328 3.96971 1.65522 4.11135C1.99716 4.25299 2.37343 4.29005 2.73644 4.21784C3.09944 4.14564 3.43289 3.96741 3.6946 3.7057C3.95631 3.44398 4.13454 3.11054 4.20675 2.74753C4.27896 2.38453 4.2419 2.00826 4.10026 1.66632C3.95862 1.32438 3.71876 1.03211 3.41102 0.826486Z" stroke="#E93CAC" class="tailor-made-svg-elem-8"></path><path d="M21.1444 2.32251H3.72968" stroke="#E93CAC" stroke-miterlimit="10" class="tailor-made-svg-elem-9"></path><path d="M23.9134 2.44885H40.9096" stroke="#E93CAC" stroke-miterlimit="10" class="tailor-made-svg-elem-10"></path><path d="M24.4153 1V0.5H23.9153H21.1443H20.6443V1V3.77097V4.27097H21.1443H23.9153H24.4153V3.77097V1Z" stroke="#E93CAC" class="tailor-made-svg-elem-11"></path><path d="M24.5374 2.56421C34.5676 3.64621 42.3762 12.1401 42.3762 22.4568" stroke="#E93CAC" stroke-miterlimit="10" class="tailor-made-svg-elem-12"></path><path d="M2.35741 22.4572C2.35741 12.0972 10.2311 3.57602 20.3216 2.55151" stroke="#E93CAC" stroke-miterlimit="10" class="tailor-made-svg-elem-13"></path></svg>